<svg xmlns="http://www.w3.org/2000/svg" viewBox="0 0 720 520" role="img" aria-label="CareConnect emergency response illustration">
  <defs>
    <linearGradient id="bg" x1="0" x2="1" y1="0" y2="1"><stop stop-color="#111827"/><stop offset="1" stop-color="#1d4ed8"/></linearGradient>
  </defs>
  <rect width="720" height="520" rx="36" fill="url(#bg)"/>
  <circle cx="575" cy="105" r="70" fill="#ffffff" opacity=".08"/><circle cx="115" cy="420" r="95" fill="#ffffff" opacity=".06"/>
  <path d="M360 90 490 140v115c0 91-55 142-130 177-75-35-130-86-130-177V140z" fill="#fff" opacity=".97"/>
  <path d="M360 125 455 160v94c0 63-37 102-95 132-58-30-95-69-95-132v-94z" fill="#eaf2ff"/>
  <path d="M360 160c-45 0-81 36-81 81 0 43 34 78 76 81v-65h-25v-31h25v-23c0-25 15-39 38-39 11 0 23 2 23 2v26h-13c-13 0-17 8-17 16v18h29l-5 31h-24v65c42-4 75-39 75-81 0-45-36-81-81-81z" fill="#2563eb"/>
  <rect x="54" y="72" width="170" height="76" rx="18" fill="#fff" opacity=".95"/>
  <circle cx="82" cy="110" r="15" fill="#ef3340"/><path d="M82 101v18M73 110h18" stroke="#fff" stroke-width="4" stroke-linecap="round"/>
  <text x="108" y="105" font-family="Arial, sans-serif" font-size="16" font-weight="700" fill="#111827">SOS ACTIVE</text>
  <text x="108" y="126" font-family="Arial, sans-serif" font-size="11" fill="#64748b">Guardian + security notified</text>
  <rect x="480" y="320" width="184" height="104" rx="22" fill="#fff" opacity=".96"/>
  <circle cx="518" cy="357" r="17" fill="#16a34a"/><path d="m510 357 6 6 11-13" fill="none" stroke="#fff" stroke-width="4" stroke-linecap="round" stroke-linejoin="round"/>
  <text x="548" y="354" font-family="Arial, sans-serif" font-size="14" font-weight="700" fill="#111827">HELP ON THE WAY</text>
  <text x="548" y="375" font-family="Arial, sans-serif" font-size="11" fill="#64748b">Live response tracking</text>
  <path d="M205 250c-58 24-86 58-94 104" fill="none" stroke="#93c5fd" stroke-width="4" stroke-linecap="round" stroke-dasharray="7 10"/>
  <circle cx="109" cy="354" r="10" fill="#60a5fa"/><circle cx="205" cy="250" r="10" fill="#fff"/>
  <path d="M515 170c53 14 82 39 101 83" fill="none" stroke="#bfdbfe" stroke-width="4" stroke-linecap="round" stroke-dasharray="7 10"/>
  <circle cx="515" cy="170" r="10" fill="#fff"/><circle cx="616" cy="253" r="10" fill="#60a5fa"/>
</svg>
